<svg height="100" width="100" xmlns="http://www.w3.org/2000/svg" viewBox="0 0 8 8" xml:space="preserve"><path d="M8 4a4 4 0 0 1-4 4 4 4 0 0 1-4-4 4 4 0 0 1 8 0z" style="fill:#77b3d4"/><g style="opacity:.2"><path d="M6 4c0-1.1-.9-2-2-2a2 2 0 0 0-1.938 1.512C1.462 3.612 1 4.125 1 4.75 1 5.438 1.563 6 2.25 6H6c.55 0 1-.45 1-1s-.45-1-1-1z" style="fill:#231f20"/></g><path d="M6 3.75c0-1.1-.9-2-2-2a2 2 0 0 0-1.938 1.512C1.462 3.362 1 3.875 1 4.5c0 .688.563 1.25 1.25 1.25H6c.55 0 1-.45 1-1s-.45-1-1-1z" style="fill:#fff"/><g/></svg>